<?xml version="1.0" encoding="UTF-8"?>
<!DOCTYPE svg PUBLIC "-//W3C//DTD SVG 1.1//EN" "http://www.w3.org/Graphics/SVG/1.1/DTD/svg11.dtd">
<!-- Creator: CorelDRAW -->
<svg xmlns="http://www.w3.org/2000/svg" xml:space="preserve" width="211.667mm" height="211.667mm" version="1.1" style="shape-rendering:geometricPrecision; text-rendering:geometricPrecision; image-rendering:optimizeQuality; fill-rule:evenodd; clip-rule:evenodd"
viewBox="0 0 21166.66 21166.66"
 xmlns:xlink="http://www.w3.org/1999/xlink"
 xmlns:xodm="http://www.corel.com/coreldraw/odm/2003">
 <defs>
  <style type="text/css">
   <![CDATA[
    .fil1 {fill:none}
    .fil0 {fill:#174580}
   ]]>
  </style>
 </defs>
 <g id="Camada_x0020_1">
  <metadata id="CorelCorpID_0Corel-Layer"/>
  <g id="_2286799290976">
   <path class="fil0" d="M12558.53 14188.77c367.74,-102.24 856.61,56.16 1052.52,461.62 263.28,544.88 60.42,1437.03 -676.74,1443.17 -385.79,3.21 -393.38,-136.82 -401.63,-375.31 -17,-490.7 -0.14,-1048.56 25.85,-1529.48zm-706.57 -136.06c213.16,80.7 266.67,-23.18 269.92,418.47 1.64,222.04 3.47,445.98 1.61,667.95 -1.82,217.74 -8.45,439.49 -9.75,652.88 -2.85,465.4 -90.55,321.88 -268.02,407.57 1.46,169.73 200.52,99.23 334.19,96.88 145.87,-2.58 304.76,0.8 450.49,8.63 318.57,17.16 536.3,28.28 808.74,-86.65 1162.97,-490.6 963.91,-2437.47 -829.61,-2276.95 -147.39,13.2 -284.77,14.55 -439.63,12.41 -130.86,-1.81 -323.31,-75.72 -317.94,98.81z"/>
   <path class="fil0" d="M10131.53 15127.12c-33.45,-240.3 -0.09,-702.21 11.91,-949.66 351.41,-84.65 557.54,179.86 555.46,488.61 -2.25,332.64 -200.92,530.24 -567.37,461.05zm979.61 -447.41c12.74,-279.71 -91.25,-467.44 -255.01,-586.85 -201.6,-147 -417.15,-155.96 -704.49,-150.83 -141,2.51 -280.39,0.89 -421.25,-1.43 -136.73,-2.23 -302.74,-55.86 -288.93,106.32 176.25,85.25 264.45,-67.11 270.5,390.89 2.95,222.93 5.8,445.2 8.03,667.94 2.2,218.57 -3.21,436.79 -5.29,653.42 -4.27,441.18 -74.78,339.53 -260.54,407.69 -46.3,194.25 229.19,110.26 387.92,111.92 178.4,1.85 350.9,17.23 516.72,20.91 33.88,-47.47 56.46,-32.61 57.29,-107.86 -135.5,-99.6 -244.62,39.54 -275.77,-278.36 -15.35,-156.48 -25.55,-410.23 -9.91,-564.13l245.46 12.53c55.5,34.13 357.52,573.12 441.17,680.19 252.14,322.85 849.18,264.67 856.95,260.6 36.03,-40.56 52.96,-45.69 46.56,-121.94 -256.1,-56.22 -315.72,-24.25 -566.51,-377.33 -65.54,-92.26 -343.85,-511.33 -354.38,-586.06 155.6,-136.56 299.81,-281.66 311.48,-537.62z"/>
   <path class="fil0" d="M5303.39 14134.43c262.65,-74.02 534.51,41.33 677.09,179.4 561.92,544.11 425.49,1585.26 -235.91,1724.78 -555.28,117.14 -894.15,-321.43 -994.86,-746.24 -112.37,-473.98 31.03,-1010.64 553.68,-1157.94zm-1005.85 1066.88c67.57,364.69 190.89,586.16 425.32,789.5 210.61,182.64 558.88,312.45 923.47,291.74 673.09,-38.25 1196.89,-592.23 1104.74,-1322.2 -136.2,-1078.92 -1508.3,-1432.27 -2172.1,-688.12 -169.16,189.64 -343.84,592.16 -281.43,929.08z"/>
   <path class="fil0" d="M8650.23 14936.03c1.52,447.8 71.87,989.5 -339.01,1099.43 -500.94,134.04 -744.47,-161.61 -763.62,-615.17l-3.48 -1090.02c10.53,-330.95 154.52,-231.34 245.03,-289.45 39.96,-25.65 25.97,-80.32 -16,-106.45 -50.63,-31.51 -261.2,-3.99 -336.9,-4.13 -118.43,-0.25 -245.63,2.4 -363.03,-6.21 -105.87,-7.75 -253.23,-35.29 -220.76,108.33 124.89,45.46 234.91,22.39 256.02,183.41 50.37,384.4 -2.68,893.78 44.95,1242.62 71.05,520.39 330.71,837.53 887.76,846.06 591.12,9.04 847.89,-299.69 896.38,-833.9 25.87,-285.28 -15.69,-1026.46 27.83,-1254.34 37.96,-198.75 159.42,-115.86 247.92,-182.85 -2.64,-117.39 -70.54,-118.41 -168.36,-104.65 -409.27,57.57 -698.03,-110.63 -669.52,113.11 183.49,61.17 247.42,-21.75 258.37,328.53 5.77,183.98 15.76,372.21 16.42,565.68z"/>
   <path class="fil0" d="M15513.15 14890.1c-72.06,131.49 -312.74,87.18 -504.47,86.55 -26.15,-100.7 6.78,-658.44 27.1,-775.85 126.52,-13.54 397.83,-16.8 507.09,9.96 182.31,44.67 174.53,134.73 216.7,292.86 120.77,-0.27 122.82,-71.06 122.07,-178.65 -2.35,-341.06 67.62,-394.21 -216.05,-364.25 -156.29,16.53 -735.26,5.38 -911.04,3.84 -249.56,-2.17 -447.65,-76.02 -431.99,102.07 186.76,84.21 270.88,-32.29 265.61,423.14 -2.65,228.93 17.02,1483.52 -53.77,1615.14 -55.59,103.38 -182.45,57.52 -228.24,107.21 -42.71,51.28 21.18,108.37 69.4,116.5 28.89,4.89 156.02,-8.87 200.19,-10.28l900.46 2.72c316.53,4.39 241.19,44.63 383.13,-30.62 3.33,-93.35 -6.83,-186.31 -3.7,-281.83 2.49,-76.52 24.57,-166.65 19.79,-235.28l-118.12 -17.17c-59.21,95.23 -36.53,249.3 -187.66,307.08 -103.86,39.72 -342.09,33.81 -452.99,3.02 -148.92,-41.35 -129.14,-219.82 -126.54,-372.98 2.46,-144.16 -6.73,-349.97 10.59,-486.01 61.15,-12.64 314.54,-9.4 382,-0.35 151.11,20.28 111.82,109.22 177.01,215.65l112.08 -12.26c8.22,-98.47 -16.79,-212.54 -13.96,-329.99 2.53,-104.44 32.46,-217.54 22.83,-312.89l-109.48 -17.9c-35.75,47.92 -27.27,84.43 -58.04,140.57z"/>
   <path class="fil0" d="M16325.36 15678.65c-158.77,-18.29 -116.68,147.7 -117.91,271 -1.91,189.63 -64.02,190.19 92.18,279.43 719.7,411.16 1529.56,-126.55 1263.62,-779.21 -85.84,-210.65 -222.46,-313.12 -377.02,-435.23 -136.82,-108.07 -325.08,-226.12 -429.77,-369.89 -149.86,-205.84 -64.9,-452.36 205.48,-471.06 390.3,-27 367.43,286.46 423.46,376.88 133.08,14.77 111.52,-83.53 111.07,-189.09 -0.38,-94.86 21.08,-214.17 17.22,-290.37 -181.07,-82.57 -343.93,-158.9 -595.42,-130.52 -473.87,53.51 -736.9,377.67 -606.1,799.68 53.19,171.57 191.46,304.58 309.37,404.38 185.67,157.15 750.95,482.97 533.69,839.91 -118.2,194.21 -542.02,244.36 -734.76,-52.61 -57.78,-89 -58.71,-187.44 -95.11,-253.3z"/>
   <path class="fil0" d="M3513.93 15998.28c-181.26,-24.4 -188.71,-45.08 -211.94,-213.07 -24.54,-177.52 -45.58,-1452.76 -18.79,-1609.67 21.82,-127.8 124.6,-121.75 246.97,-161.23 9.85,-176.06 -141.05,-107.4 -493.72,-107.98 -325.05,-0.54 -468.49,-78.64 -464.57,103.05 82.44,36.95 163.78,15.43 227.83,99.57 85.27,112.01 82.16,1374.15 85.23,1592.05 3.95,281.57 31.43,376.25 -252.85,413.24 -29.08,174.85 155.45,120.25 269,117.1 134.87,-3.75 271.35,-1.99 406.58,-1.74l802.98 20.11c30.47,-45.97 51.73,-37.06 42.64,-108.07 -31.06,-243.05 7.06,-305.62 -6.4,-446.81l-114.45 -10.99c-69.54,132.29 9.52,385.5 -518.51,314.44z"/>
   <path class="fil0" d="M14376.62 10553.59c-85.8,13.64 -458.5,24.41 -537.73,8.16 -3.23,-36.94 13.09,-62.81 77.54,-95.99 53.9,-27.77 94.31,-0.16 150.41,12.69l246.62 43.95c66.27,12.71 38.89,-7.59 63.16,31.19zm519.2 -60.29c36.77,-69.92 81,-153.27 157.58,-164.59l132.35 308.34c-70.62,-8.04 -199.48,-75.43 -262.32,-119.73 -30.26,-21.33 -6.96,-3.15 -27.61,-24.02zm284.22 -234.65c42.93,29.3 163.99,223.7 226.69,297.39 37.34,43.84 69.72,53.52 79.15,107.64 -236.92,18.87 -303.96,-153.96 -354.85,-280.19 -34.26,-85.01 -47.41,-107.25 49.01,-124.84zm-1378.6 199.62c-30.71,-52.01 9.47,-152.92 25.35,-205.26 11.03,-36.28 19.22,-69.86 26.86,-105.91 16.29,-76.97 -4.26,-54.21 49.3,-88.89 4.08,151.26 12.37,335.97 -101.51,400.06zm1618.49 -257.59c32.83,-22.18 73.84,-20.77 114.96,-18.12 37.33,42.92 49.96,56.51 73.86,115.26 20.78,51.09 34.18,76.14 70.56,114.63 48.62,51.45 169.19,126.93 200.72,192.86 -49.44,36.07 -287.43,52.99 -291.73,51.9 -77.06,-42.98 -321.17,-352.21 -336.18,-425.33 173.56,-9.74 164.9,109.63 309.01,119.19 -18.2,-53.12 -12.56,-40.85 -66.24,-72.92 -82.08,-49.04 -54.6,-39.66 -74.96,-77.47zm-2037.81 212.72c-5.87,-110.46 37.12,-154.85 121.57,-180.01l224.62 -67.03c-19.38,85.04 -157.37,134.64 -245.33,202.54 -31.54,24.33 -46.31,45.13 -100.86,44.5zm2459.91 -243.54c101.79,-47.77 215.46,105.88 361.24,238.98 17.54,16.03 8.67,6.29 22.77,22.15 20.4,22.98 2.86,-3.65 19.22,27.56 -307.7,315.15 -605.12,-160.38 -617.33,-273.18 173.73,-0.03 238.18,116.66 320.31,129.09 -19.71,-78.86 -79.66,-75.19 -106.21,-144.6zm176.22 -44.31c176.48,-101.78 258.82,86.56 368.69,155.65l46.16 31.35c-134.3,185.56 -409.83,-112.99 -414.85,-187zm-1854.99 198.57c-25.08,-21.04 -21.12,-13.94 -32.71,-45.38 88.44,-174.55 278.64,86.95 397.42,-16.19 -3.24,-2.27 -8.18,-3.93 -10.76,-4.92 -2.59,-0.98 -7.73,-3.43 -10.96,-4.56l-99.49 -29.22c-30.03,-11.39 -90.7,-33.28 -106.41,-58.16 -125.44,-198.47 292.98,19.92 736.04,-20.03 -18.12,74.78 -222.44,259.34 -392.26,272 -125.88,9.4 -387.33,-15.1 -480.87,-93.54zm2227.57 -220.85c113.06,85.92 112.94,56.96 131.16,127.14 -112.8,7.24 -266.57,-106.3 -286.83,-163.87 61.08,-62.2 114.64,5.54 155.67,36.73zm315.71 -55.5c-1.65,32.89 -106.14,98.19 -147.48,109.68 -79.03,-38.75 -152.67,-74.43 -158.24,-137.73l305.72 28.05zm-3313.7 103.22c-62.16,-5.31 -90.03,-49.9 -107.86,-109 75.84,11.55 105.3,32.54 107.86,109zm59.01 28.92c13.14,-125.18 24.12,-93 128.48,-132.05 68.39,-25.57 136.93,-43.64 204.38,-57.05 -9.98,100.29 -32.4,112.3 -125.44,139.81 -61.17,18.08 -141.48,44.02 -207.42,49.29zm2832.64 -216.7c12.47,-68.83 66.72,-116.37 147.65,-120.82 -19.85,72.02 -73.24,111.72 -147.65,120.82zm-2041.1 -0.14c-25.03,-105.24 -5.7,-245.79 15.23,-345.79 18.54,21.44 14.67,9.82 27.52,47.46l14.8 134.08c3.84,173.84 -25.48,151.07 -57.55,164.25zm184.56 9.48c85.34,-65.48 138.91,30.5 259.6,30.76 -28.16,-68.43 -132.5,-73.1 -143.39,-124.67 -17.12,-81.07 113.48,-11.75 160.97,2.7 160.97,48.95 261.69,65.67 452.67,51.12 -11.07,99.35 -57.05,99.01 -141.42,137.65 -162.68,74.5 -245.4,33.28 -428.24,-14.89 -141.45,-37.29 -159.97,-10.28 -160.19,-82.67zm275 -150.96c-74.14,-37.34 -27.29,11.4 -41.29,-60.55 38.17,-20.3 175.36,28.21 239.35,38.07 103.59,15.94 162.95,16.97 274.48,12.95 -51.33,119.36 -299.17,62.31 -404.47,29.09 -8.98,-2.83 -66.4,-18.72 -68.07,-19.56zm1357.7 146.73c10.71,-91.04 108.25,-230.83 198.82,-228.15 -7.5,47.08 -48.94,92.46 -76.27,125.63 -39.41,47.81 -60.95,84.32 -122.55,102.52zm-208.1 65.37c5.15,-64.39 155.81,-296.93 239.57,-299.99 -5.04,35.66 -134.3,300.02 -239.57,299.99zm-375.52 55.77c15.69,-72.61 103.44,-220.77 154.5,-292.62 69.49,-97.79 158.26,-157.73 298.99,-103.52 11.47,81.78 -55.17,151.04 -92.92,220.35 -68.39,125.57 -70.59,164.9 -154.51,171.07 17.28,-134.89 118.5,-207.42 116.78,-301.46 -106.48,61.35 -117.02,270.35 -322.84,306.18zm-2155.63 -357.3c67.46,25.88 126.51,74.63 142.3,138.18 -76.17,-13.9 -121.84,-50.34 -142.3,-138.18zm1996.83 372.7c20.77,-126.14 162.13,-374.64 257.82,-389.28 -17.14,51.3 -74.9,136.95 -114.34,199.94 -71.25,113.85 -72.84,168.03 -143.48,189.34zm-1830.8 -93.26c-17.18,-121.4 90.46,-143.5 173.56,-189.45 68.84,-38.07 175.99,-103.36 260.58,-118.43 -25.42,99.48 -64.81,217.64 -153.52,241.73 -59.4,16.13 -238.12,65.7 -280.62,66.15zm1659.93 -390.59c-72.26,-50.15 -143.67,-2.63 -171.52,-71.87 47.29,-34.25 274.38,14.41 347.25,26.46 -11.78,106.4 -96.43,163.87 -203,180.92 -81.69,13.08 -254.66,8.58 -329.17,-46.88 99.11,-122.1 253.98,-15.14 356.44,-88.63zm-1548.22 -37c9.43,-101.47 52.03,-57.52 150.63,-83.29 40.3,-10.53 51.48,-11.04 100.63,-19.74 149.25,-26.39 240.44,-174.33 326.63,-192.48 17.66,252.89 -30.35,264.2 -217.11,342.62 -96.8,40.66 -295.62,132.93 -403.43,135.39 5.66,-208.45 227.04,-77.49 254.16,-195.22 -61.75,2.53 -157.79,43.32 -211.51,12.72zm1553.46 -93.71c26.36,-68.49 193.64,-120.66 259.69,-88.22 -7.68,41.95 2.91,35.3 -41.3,64.11 -71.94,46.88 -142.39,65.62 -218.39,24.11zm-1420.62 -275.93c59.29,-31.14 118.08,-42.77 192.41,-66.71 71.27,-22.92 100.68,-63.19 190.59,-84.84 35.28,42.98 40.41,133.26 37.56,190.36 -76.2,40.05 -120.64,93.88 -210.8,137.88 -78.94,38.49 -192.72,57.42 -293.27,36.53 -23.83,-163.22 211.01,-133.55 245.13,-222.36 -54.8,-13.3 -75.04,27 -114.92,26.8 -49.61,-0.26 -14.7,9.89 -46.7,-17.66zm15.42 -103.96c10.38,-104.69 46.42,-143.83 153.27,-170.56 108.72,-27.18 126.95,-64.57 198.58,-65.46l22.77 4.16c72.3,163.27 -267.39,242.12 -374.62,231.86zm114.92 -232.39c13.91,-38.77 1.56,-36.5 46.68,-67.84l196.79 -63.71c10.57,106.1 -158.07,134.07 -243.47,131.55zm127.5 -160.47c7.85,-70.52 44.34,-130.82 107.71,-150.84l-2.27 111.52c-28.51,22.05 -48.89,33.78 -105.44,39.32zm-2221.82 -1855.7c89.57,-5.72 501.47,237.91 596.84,302.66 198.73,134.9 325.14,251.53 485.37,428.87 707.83,783.34 411.82,1825.05 -449.37,2396.88 -186.51,123.84 -376.72,231.56 -594.23,321.61 -125.32,51.88 -569.22,216.11 -693.67,205.74 -19.54,15.8 3.41,3.71 -31.18,15.66 -20.56,7.1 -32.4,7.58 -49.94,12.73 -87.14,25.53 -74.15,86.65 -188.34,143.38l54.81 7.64c81.06,-27.32 249.92,-49.88 337.08,-70.23 328.82,-76.81 618.79,-187.5 909.36,-339.69 337.93,-176.98 584.99,-372.96 821.72,-646.22 73.54,-84.88 40.3,-82.77 106.22,-99.13 10.89,116.9 1.64,188.44 27.24,293.49 45.38,186.27 109.45,318.05 156.39,484.95 13.67,48.61 49.04,215.03 66.46,254.07 90.51,-12.15 174.87,-187.81 345.16,-202.12 -75.56,246.98 -175.05,270.69 -175.65,349.02 34.75,-4.46 53.32,-21.8 88.74,-35.14l409.1 -37.84c147.01,-3.48 364.19,-27.39 507.2,-54.9 361.51,-69.52 149.2,-40.18 344.56,6.02 42.8,10.12 66.16,7.35 109.54,20.35 104.56,31.32 56.37,56.6 210.74,83.8 450.85,79.45 810.66,70.84 1157.92,-195.87 108.86,-83.63 203.07,-170.34 311.56,-253.28 187.29,-143.21 303.83,-153.32 338.14,-175.06 46.06,-29.16 9,7.65 29.9,-30.46 -35.94,-48.34 -107.28,-69.97 -167.11,-100.91 -188.51,-97.54 -316.06,-158.5 -503.46,-276.39 -305.8,-192.34 -792.27,-34.94 -907.54,-32.2 26.15,-203.05 206.36,-317.83 224.78,-354.35 -3.59,-2.32 -8.61,-4.2 -11.74,-5.22 -3.12,-1.01 -8.05,-3.58 -12,-4.68 -4.02,-1.11 -7.97,-2.68 -12.56,-3.67l-55.94 -4.2c-347.47,-6.64 -691.62,-57.46 -1002.22,20.14 -68.33,17.06 -229.71,97.55 -265.33,93.14 -19.3,-102.21 -20.38,-166.7 -49.29,-265.37 -42.67,-145.66 -88.88,-396.61 -54.86,-553.94 17.23,-79.63 69.33,-172.53 75.87,-229.24 -87.29,6.44 -136.55,89.5 -243.36,134.7 -95.39,40.36 -170.56,76.85 -252.95,126.37 -229.53,137.95 -364.81,313.39 -423.56,331.35 4.72,-85.96 25.76,-154.54 28.71,-238.69 19.73,-561.28 -144.32,-835.16 -481.45,-1245.47 -194.99,-237.34 -580.27,-487.78 -858.9,-621.23 -86.81,-41.56 -251.18,-99.13 -322.33,-143.77 -37.83,0.76 -75.47,-21.52 -86.24,116.35 53.66,14.78 109.5,26.56 149.81,70.35z"/>
   <path class="fil0" d="M11394.06 7366.79l-268.43 678.72c-30.27,80.53 -52.82,140.69 -87.22,218.68 -67.97,154.09 -124.24,296.16 -189.2,437.29l-202.89 413.66c35.27,-13.9 211.42,-226.02 262.22,-285.34 49.68,-58.02 179.4,-371.58 406.12,-484.36 64.6,-112.3 212.32,-171.99 342.65,-153.02 57.18,8.33 135.03,44.99 180.91,70.59 75.67,42.21 90.04,78.31 86.99,180.47 30.3,17.38 29.06,44.98 84.78,53.52l62.66 -6.44c53.94,20.47 95.01,89.83 98.46,142.36l-177.57 4.23c-17.13,24.36 -81.7,54.17 -109.96,75.64 -41.79,31.73 -61.64,74.93 -102.44,83.23 -4.26,67.34 23.08,44.5 48.37,83.99l-44.5 65.63c-14.82,22.82 -31.59,44.71 -48.19,69.37 -88.81,131.96 -199.12,296.77 -253.72,440.36l-120.87 340.69c-27.63,68.99 -32.32,103.26 -53.38,180.84 -12.31,45.31 -33.38,133 -81.75,149.82 -6.31,45.7 -11.72,59.56 -51.57,111.22l-20.64 24.76c-18.16,24.74 -8.27,-9.05 -16.52,25.06 -15.81,65.48 -2.35,35.08 34.26,42.65 153.96,-60.7 399.95,-95.7 633.54,-208.03 510.65,-245.56 1150.06,-646.27 1254.64,-1287.84 156.86,-962.31 -645.3,-1554.66 -1467.85,-1862.4l-42.46 -6.16c-77.2,99.83 -109.15,325.78 -156.44,400.81z"/>
   <path class="fil0" d="M5931.33 10516.77l428.7 -85.34c40.42,58.9 63.34,40.43 72.06,94.75 0.3,1.85 0.18,6.82 -0.65,10.1 -49.9,17.84 -442.23,13.66 -500.11,-19.51zm-811.94 88.33l143.33 -310.15c55.59,22.32 130.02,135.01 154.27,180.44 -54.1,37.29 -227.95,127.45 -297.6,129.71zm1299.43 -509.03c30.66,110.37 66.85,208.93 70.74,337.46 -63.69,-19.28 -77.3,-65.81 -93.32,-125.63 -20.79,-77.6 -29.54,-161.2 22.58,-211.83zm-1585.92 538.32c1.8,-43.19 88.17,-128.69 143,-197.38 47.17,-59.08 114.07,-177.58 155.86,-205.66l73.72 24.8c-25.15,192.65 -144.84,396.11 -372.58,378.24zm1727.17 -474.81c254.68,52.63 318.77,77.76 329.3,235.65 -69.18,-12.03 -310.61,-166.58 -329.3,-235.65zm-1798.24 167.87c135.87,-22.79 150.59,-150.63 301.95,-115.84 -79.99,173.9 -267.55,349.95 -315.14,416.11 -68.41,-0.5 -104.92,-12.68 -159.38,-21.12 -51.65,-8 -102.27,-6.05 -143.63,-39.97 47.18,-69.47 159.34,-125.39 219.1,-208.47 82.25,-114.32 37.03,-234.05 232.29,-196.42 -3.47,50.9 -19.89,56.39 -59.15,79.43 -57.74,33.89 -54.91,23.25 -76.04,86.28zm-362.85 -57.51c108.22,-31.61 154.85,-120.85 296.66,-109.32 -16.04,91.48 -259.18,507.15 -517.28,332.83l-86.46 -70.53c34.41,-66.54 126.77,-118.57 174.06,-170.07 70.4,-76.66 110.92,-138.65 222.28,-116.77 -15.97,59.75 -62.68,45.4 -89.26,133.86zm1371.14 -28.38c113.24,81.62 321.88,-147.69 391.09,27.38 -69.7,100.55 -333.99,135.9 -492.54,129.25 -154.02,-6.46 -348.64,-160.01 -389.69,-268.62 243.4,14.75 330.66,-9.42 535.61,-53.51 277.72,-59.73 220.79,80.2 69.24,129.98l-113.71 35.52zm-1855.49 51.42c9.55,-34.25 2.54,-17.11 31.53,-39.87 134.64,-105.73 230.59,-246.27 371.9,-150.61 -10.21,40.54 -127.7,154.7 -155.14,178.35 -71.48,61.53 -168.09,81.75 -248.29,12.13zm2566.48 -327.39c81.62,13.04 147.93,43.46 232.15,70.84 82.8,26.9 126.27,49.78 123.15,146.97 -51.73,-7.91 -149.26,-41.03 -199.91,-58.26 -96.46,-32.81 -141.03,-40.04 -155.39,-159.55zm-2656.15 226.12c11.79,-58.91 76.41,-79.11 126.26,-120.21 64.91,-53.51 92.83,-92.98 156.52,-26.18 -11,22.34 -104.49,89.2 -124.31,102.98 -38.24,26.63 -97.4,67.56 -158.47,43.41zm3059.68 -51.67c-1.11,-78.88 41.49,-115.63 114.25,-117.03 -10.3,25.9 -22.23,43.69 -39.16,66.98 -35.05,48.24 -24.42,39.05 -75.09,50.05zm-3230.03 -121.85l292.16 -29.43c-0.31,2.9 -114.02,232.37 -269.06,74.78 -23.43,-23.79 -18.21,-12.26 -23.1,-45.35zm2392.81 -67.3c-103.59,-29.42 -71.52,-301.71 -32.62,-360.62 55.57,78.26 56.52,256.73 32.62,360.62zm-907.25 -46.17c139.41,-1.08 183.18,23.61 344.2,-10.41 65.24,-13.79 224.92,-81.69 258.04,-76.5 47.46,110.06 -50.52,34.5 -102.07,159.4 105.84,-10.81 203.43,-109.03 235.86,2.53 -38.94,35.86 -328.93,104 -410.91,108.28 -112.91,5.88 -328.23,-68.33 -325.12,-183.3zm-1233.59 -95.99c74.91,11.67 128.13,51.87 140.14,123.85 -76.82,-14.12 -121.56,-49.93 -140.14,-123.85zm1237.57 -0.13c17.31,-10.68 0.3,-6.23 31.56,-11.66 18.91,-3.29 21.95,-1.79 40.26,-1.78 269.38,0.17 356.55,-94.18 430.66,-32.25 -32.16,71.1 -413.71,150.17 -502.48,45.69zm-770.23 19.64c48.66,61.65 83.77,99.2 93.24,177.6 -57.41,-7.85 -47.26,-4.46 -84.46,-56.1 -50.94,-70.7 -144.61,-181.67 -131.62,-245.08 53.01,8.3 86.75,77.85 122.84,123.58zm-288.95 -114.66c80.27,18.04 174.31,136.74 188.3,228.29 -75.33,-17.27 -176.75,-153.79 -188.3,-228.29zm753.87 53.49c55.5,60.37 151.91,240.43 159.67,315.86 -49.45,-9.48 -56.7,-36.32 -83.26,-83.41l-172.43 -301.42c49.4,7.01 59.72,29.49 96.02,68.97zm4.15 291.31c-193.75,-2.16 -220.4,-260.81 -322.26,-292.9 18.15,126.61 102.28,139.79 117.41,291.52 -67.97,-2.47 -75.34,-29.51 -102.65,-83.19 -97.12,-191 -246.86,-317.16 -45.52,-317.1 122.06,0.03 176.77,78.17 226.83,162.1 27.6,46.31 108.47,190.7 126.19,239.57zm1944.38 -65.38c-43.71,1.16 -278.83,-53.81 -316.44,-79.03 -35.95,-24.08 -119.23,-205.28 -134.36,-240.7 63.59,9.08 197.98,92.72 261.59,127.04 100.58,54.27 178.52,60.73 189.21,192.69zm-1048.03 -299.79c-37.91,-68.35 -13.64,-188.47 -13.9,-265.96 29.89,7.28 39.25,-2.38 50.33,46.27 5.57,24.46 4.09,60.42 3.09,85.99 -0.85,21.8 -2.16,57.45 -5.62,78.21 -13.4,80.56 2.83,36.21 -33.9,55.49zm-749.31 -138.52c196.29,-19.78 301.96,-81.29 335.94,-8.23 -35.36,26.76 -23.37,14.26 -63.59,24.98 -61.04,16.23 -62.55,19.41 -85.93,44.29 107.19,26.93 256.43,-21.94 333.09,75.16l-42.88 23.42c-127.39,50.07 -477.88,54.3 -476.63,-159.62zm1392.28 -102.23c196.32,57.19 317.64,19.52 292.04,138.33 -57.49,3.52 -133.13,-39.14 -185.54,-5.7 55.27,39.37 96.15,22.03 212.98,82.02l18.72 83.62c-98.98,1.98 -331.92,-100.69 -410.97,-137.92 -178.38,-83.96 -232.4,-100.08 -206.46,-344.39 83.67,23.38 140.73,143.7 279.23,184.04zm-1331.41 -58.4c114.76,46.88 87.73,54.41 98.31,86.16 -97.81,14.44 -244.13,4.22 -251.41,-103.96 49.86,-2.45 107.21,-0.94 153.1,17.8zm1574.85 20.05c-126.27,34.35 -273.95,-18.07 -362.81,-76.45 -27.67,-18.16 -119.01,-83.05 -131.08,-106.36 -24.99,-48.27 -6.82,-142.67 25.85,-185.6 157.6,46.56 36.34,58.05 287.9,117.27 54.31,12.79 67.37,29.35 84.72,64.66 -79.97,-10.07 -99.28,-43.62 -141.92,-19.64 66.86,85.59 236.52,44.74 237.34,206.12zm-12.8 -268.55c-0.6,-68.22 38.71,-32.75 74.16,-121 22.27,-55.42 24.59,-94.35 79.81,-127.32 16.54,29.56 23.44,-33.51 9.82,44l-53.03 107.33c-77.25,137.78 -67.66,108.38 -110.76,96.99zm-457.34 -286.41c65.21,1.81 163.77,56.62 228.4,75.23 50.45,14.53 106.26,22.89 128.42,109.34l-1.85 53.46c-74.75,29.25 -173.95,-20.51 -243.39,-55.75 -85.26,-43.25 -150.76,-66.82 -111.58,-182.28zm393.95 144.38c-44.55,-67.55 -18.11,-52.93 -4.04,-75.05l90.3 -128.41c5.07,10.27 9.06,5.09 9.88,28.74 0.78,22.29 -36.72,147.61 -96.14,174.72zm-374.04 -257.73c87.17,-5.15 213.97,57.48 238.75,125.9 -95.21,0.51 -238.08,-32.29 -238.75,-125.9zm5.03 -182.58c56.45,3.31 106.22,120.11 109.12,139.88 -62.25,9.28 -78.83,-13.63 -111.57,-36.94l2.45 -102.94zm2597.25 1982.22c74.72,8.57 82.99,8.85 145.17,-12.53 53.95,-18.54 88.69,-15.71 97.23,-63.78 -118.87,15.32 -539.94,-165.67 -643.49,-215.67 -396.23,-191.26 -722.28,-424.64 -982.86,-759.5 -278.42,-357.8 -420.17,-909.39 -259.18,-1346.59 151.8,-412.27 421.65,-709.72 764.82,-956.59 92.5,-66.54 461.14,-298.51 552.47,-294.13l-0.73 -49.72c-75.62,-41.23 -30.68,-55.93 -98.25,-63.55 -392.2,203.29 -777.49,431.55 -1046.57,801.66 -133.95,184.23 -240.96,372.29 -307.38,620.25 -119.67,446.79 -14.43,533.47 10.41,820.51 -55.96,-22.39 -39.39,-13.97 -74.72,-62.15 -110.17,-150.23 -214.17,-234.51 -368.81,-340.12 -165.21,-112.81 -325.31,-159.08 -403.92,-219.22 -51.61,-39.46 -61.53,-70.53 -143.49,-73.61 23.6,81.29 57.71,133.3 78.37,244.26 27.11,145.7 -4.67,407.2 -55.81,548.97 -19.13,53.06 -15.88,45.64 -24.4,111.98 -0.53,4.2 -7.49,56.49 -8.97,63.34l-22.89 62.95c-82.56,-15.69 -174.67,-71.51 -288.41,-96.83 -239.78,-53.36 -958.21,-31.37 -1020.64,-6.56 15.91,87.05 134.47,54.69 217.43,359.8 -127.27,-7.04 -234.99,-68.26 -476.01,-66.38 -143.73,1.12 -303.94,26.98 -411.1,95.71 -264.66,169.75 -363.3,200.01 -594.55,321.89 -49.28,25.98 -44.11,15.31 -58.09,72.05 530.87,89.86 628.31,757.02 1561.54,664.78 436.33,-43.15 322.39,-82.11 450.97,-116.77 42.59,-11.48 78.82,-9.23 121.16,-22.6 133.06,-41.98 -4.22,-63.81 329.45,4.21 142.04,28.95 347.53,51.15 492.59,55.94 409.26,13.51 395.62,62.32 477.57,71.1 -8.63,-85.44 -146.37,-163.88 -173.45,-345.8 135.86,2.56 272.68,203.12 342.41,210.82 127.33,-636.66 249.2,-491.97 214.68,-1163.42 33.85,23.3 111.12,136.22 147.67,185.02 249.85,333.72 600.61,565.63 982.27,759.34 79.73,40.46 462.34,187.43 477.51,200.94z"/>
   <path class="fil0" d="M9169.55 9766.49c-28.26,-32.06 -49.83,-95.4 -59.25,-136.83 -53,-232.95 -230.07,-56.52 -225.27,-345.26 3.19,-191.27 182.11,-232.71 -17.17,-401.89 -54.94,-46.66 -68.36,-41.03 -102.83,-92.95 -128.81,-21.97 -262.2,-239.71 -324.27,-338.95 -84.04,-134.38 -49.71,-479.37 20.78,-546.64 -12.63,-43.02 30.55,-201.66 55.4,-229.72 -0.13,-6.87 1,-15.2 0.39,-20.63 -0.5,-4.54 -1.17,-12.75 -1.75,-17.16l-11.63 -20.58c-129.85,30.8 -253.82,62.11 -263.21,-114.24 -4.24,-79.73 21.29,-270.19 92.42,-325.1 -28.29,-39.05 -14.06,-32.16 -68.22,-2.31 -152.69,84.17 -315.59,194.6 -451.03,306.68 -554.62,458.99 -767.25,1193.29 -361.71,1795.31 349.3,518.51 934.85,843.24 1555.24,1007.19 67.43,17.83 296.61,91.61 352.38,61.72 31.98,-17.14 165.06,-199.12 185.83,-235.72 -39.64,-25.58 -64.97,-14.37 -138.1,-50.56 -96.69,-47.83 -222.46,-180.11 -238,-292.36z"/>
   <path class="fil0" d="M12644.88 14188.41c367.74,-102.25 856.61,56.15 1052.52,461.61 263.28,544.88 60.42,1437.04 -676.74,1443.18 -385.79,3.21 -393.39,-136.82 -401.63,-375.31 -17,-490.7 -0.14,-1048.57 25.85,-1529.48zm-706.57 -136.06c213.16,80.7 266.67,-23.19 269.92,418.47 1.64,222.03 3.46,445.97 1.61,667.94 -1.82,217.75 -8.45,439.49 -9.75,652.88 -2.85,465.4 -90.55,321.88 -268.02,407.58 1.46,169.73 200.52,99.22 334.19,96.87 145.87,-2.57 304.76,0.8 450.49,8.64 318.57,17.15 536.3,28.27 808.74,-86.66 1162.97,-490.6 963.91,-2437.47 -829.61,-2276.94 -147.39,13.19 -284.77,14.55 -439.63,12.41 -130.86,-1.82 -323.31,-75.72 -317.94,98.81z"/>
   <path class="fil0" d="M10217.88 15126.76c-33.45,-240.31 -0.09,-702.22 11.91,-949.66 351.41,-84.65 557.54,179.86 555.45,488.6 -2.24,332.64 -200.91,530.25 -567.36,461.06zm979.61 -447.42c12.74,-279.7 -91.25,-467.43 -255.01,-586.84 -201.6,-147 -417.15,-155.97 -704.5,-150.84 -140.99,2.52 -280.38,0.9 -421.24,-1.42 -136.73,-2.24 -302.74,-55.86 -288.93,106.32 176.25,85.24 264.45,-67.12 270.5,390.89 2.95,222.92 5.8,445.19 8.03,667.93 2.19,218.57 -3.21,436.79 -5.29,653.43 -4.27,441.17 -74.78,339.53 -260.54,407.68 -46.3,194.25 229.19,110.27 387.92,111.93 178.4,1.85 350.89,17.22 516.72,20.91 33.87,-47.48 56.46,-32.62 57.29,-107.86 -135.5,-99.6 -244.62,39.54 -275.77,-278.36 -15.35,-156.49 -25.55,-410.23 -9.91,-564.14l245.46 12.53c55.5,34.13 357.52,573.12 441.17,680.19 252.14,322.85 849.18,264.67 856.95,260.61 36.03,-40.56 52.96,-45.69 46.56,-121.95 -256.1,-56.21 -315.72,-24.25 -566.51,-377.32 -65.54,-92.27 -343.85,-511.34 -354.38,-586.07 155.6,-136.55 299.8,-281.65 311.48,-537.62z"/>
   <path class="fil0" d="M5389.74 14134.06c262.65,-74.02 534.5,41.33 677.09,179.41 561.92,544.11 425.49,1585.25 -235.91,1724.78 -555.28,117.14 -894.15,-321.43 -994.86,-746.25 -112.37,-473.98 31.03,-1010.63 553.68,-1157.94zm-1005.85 1066.89c67.57,364.69 190.89,586.16 425.32,789.49 210.61,182.65 558.88,312.46 923.47,291.74 673.09,-38.25 1196.89,-592.23 1104.74,-1322.19 -136.2,-1078.93 -1508.3,-1432.27 -2172.1,-688.13 -169.16,189.65 -343.84,592.16 -281.43,929.09z"/>
   <path class="fil0" d="M8736.58 14935.67c1.52,447.8 71.87,989.5 -339.01,1099.42 -500.94,134.04 -744.48,-161.61 -763.62,-615.16l-3.48 -1090.02c10.53,-330.96 154.52,-231.34 245.03,-289.45 39.96,-25.66 25.97,-80.33 -16,-106.46 -50.63,-31.51 -261.2,-3.98 -336.9,-4.13 -118.43,-0.25 -245.63,2.4 -363.03,-6.21 -105.87,-7.75 -253.23,-35.29 -220.76,108.33 124.89,45.47 234.91,22.4 256.02,183.42 50.37,384.39 -2.68,893.77 44.95,1242.61 71.05,520.4 330.71,837.54 887.76,846.07 591.12,9.04 847.89,-299.69 896.38,-833.9 25.87,-285.29 -15.69,-1026.46 27.83,-1254.35 37.95,-198.74 159.42,-115.85 247.92,-182.84 -2.64,-117.4 -70.54,-118.42 -168.36,-104.66 -409.27,57.58 -698.03,-110.63 -669.52,113.11 183.49,61.17 247.41,-21.75 258.37,328.54 5.77,183.98 15.76,372.21 16.42,565.68z"/>
   <path class="fil0" d="M15599.5 14889.73c-72.06,131.49 -312.74,87.18 -504.47,86.55 -26.15,-100.69 6.78,-658.44 27.1,-775.85 126.51,-13.53 397.83,-16.79 507.09,9.96 182.31,44.68 174.53,134.73 216.7,292.87 120.77,-0.28 122.82,-71.06 122.07,-178.66 -2.35,-341.06 67.62,-394.21 -216.05,-364.25 -156.29,16.53 -735.26,5.38 -911.04,3.85 -249.56,-2.17 -447.65,-76.02 -431.99,102.07 186.76,84.2 270.88,-32.29 265.61,423.13 -2.65,228.94 17.02,1483.53 -53.77,1615.15 -55.59,103.37 -182.45,57.52 -228.24,107.21 -42.71,51.27 21.18,108.37 69.4,116.5 28.89,4.88 156.02,-8.88 200.19,-10.28l900.46 2.72c316.53,4.38 241.19,44.63 383.13,-30.63 3.33,-93.34 -6.83,-186.31 -3.7,-281.83 2.49,-76.52 24.57,-166.65 19.79,-235.28l-118.12 -17.16c-59.21,95.22 -36.53,249.29 -187.66,307.08 -103.86,39.71 -342.09,33.81 -452.99,3.01 -148.92,-41.35 -129.15,-219.81 -126.54,-372.98 2.46,-144.15 -6.73,-349.97 10.59,-486.01 61.15,-12.64 314.54,-9.39 382,-0.35 151.11,20.29 111.82,109.22 177.01,215.65l112.07 -12.25c8.23,-98.48 -16.78,-212.54 -13.95,-330 2.53,-104.44 32.46,-217.53 22.82,-312.88l-109.47 -17.91c-35.75,47.92 -27.27,84.43 -58.04,140.57z"/>
   <path class="fil0" d="M16411.71 15678.29c-158.77,-18.3 -116.68,147.69 -117.91,270.99 -1.91,189.64 -64.02,190.19 92.18,279.43 719.7,411.16 1529.56,-126.55 1263.62,-779.2 -85.84,-210.65 -222.46,-313.13 -377.02,-435.24 -136.82,-108.06 -325.08,-226.12 -429.77,-369.89 -149.86,-205.84 -64.9,-452.35 205.48,-471.06 390.3,-27 367.43,286.46 423.46,376.88 133.08,14.77 111.52,-83.53 111.07,-189.09 -0.38,-94.85 21.08,-214.17 17.22,-290.37 -181.07,-82.57 -343.93,-158.9 -595.42,-130.51 -473.87,53.51 -736.9,377.66 -606.1,799.67 53.19,171.57 191.46,304.59 309.37,404.38 185.67,157.15 750.95,482.98 533.69,839.92 -118.2,194.21 -542.02,244.35 -734.76,-52.61 -57.78,-89.01 -58.71,-187.44 -95.11,-253.3z"/>
   <path class="fil0" d="M3600.28 15997.91c-181.26,-24.39 -188.71,-45.08 -211.94,-213.07 -24.54,-177.52 -45.58,-1452.75 -18.79,-1609.67 21.82,-127.79 124.6,-121.74 246.97,-161.23 9.85,-176.05 -141.05,-107.39 -493.72,-107.98 -325.05,-0.54 -468.5,-78.63 -464.57,103.06 82.44,36.95 163.78,15.42 227.83,99.56 85.27,112.01 82.16,1374.16 85.23,1592.06 3.95,281.57 31.43,376.24 -252.85,413.24 -29.08,174.85 155.45,120.25 269,117.09 134.87,-3.74 271.34,-1.99 406.57,-1.74l802.99 20.11c30.47,-45.97 51.73,-37.06 42.64,-108.07 -31.06,-243.04 7.06,-305.61 -6.4,-446.8l-114.45 -10.99c-69.54,132.28 9.52,385.49 -518.51,314.43z"/>
   <polygon class="fil0" points="1870.87,16585.17 19296.04,16729.66 19295.77,16665.96 1870.63,16528.73 "/>
   <path class="fil0" d="M9883.38 6746.62c126.77,3.62 569.28,-20.96 651.2,18.89 28.74,87.19 35.42,851.65 2.52,917.97 -48.49,-37.97 -6.17,0.85 -38.43,-52.16 -17.43,-28.64 -19.48,-32.2 -41.21,-60.61 -32.58,-42.6 -52.71,-78.27 -79.13,-125.07 -42.58,-75.4 -188.8,-282.22 -250.85,-343.22 -126,-123.91 -113.05,-127.21 -166.62,-238.85 -26.32,-54.86 -65.73,-63.49 -77.48,-116.95zm21.52 -199.2l-142.17 6.3 -67.62 -89.31c9.54,-24.19 4.53,-19.36 18.43,-42.1 -85.93,-27.02 -149.96,-140.64 -149.14,-230.36 0.43,-47.97 29.01,36.78 -7.68,-19.45 -63.94,-98.05 -3.13,-66.43 -63.34,-151.53 -1.74,-2.49 -4.64,-5.69 -6.4,-8.24 -46.76,-67.78 -59.5,-146.6 -96.63,-240.79 -39.75,-100.81 -88.02,-402.55 -7.8,-537.54l68.45 -133.87c2.11,-3.95 9.06,-14.45 11.48,-18.07 8.37,-12.47 15.36,-21.58 25.69,-32.84 29.55,-32.21 20.04,-29.97 73.75,-42.53 -8.37,-88.89 10.5,-81.49 13.24,-149.44l-95.5 0.99c-61.76,75.95 -26.56,26.1 -87.09,68.23 -41.86,29.13 -125.44,118.05 -147.29,169.78l-93.42 198.74c-69.09,142.33 -25.87,378.13 -13.19,532.48 7.76,94.62 83.82,239.94 133.76,329.1l194.67 284.12c95.66,161.24 124.94,116.76 202.74,263.56 38.07,71.86 65.78,119.74 121.71,181.35 109.22,120.27 102.14,91.41 164.77,155.3l129.86 174.38c39.2,56.65 126.03,119.66 268.78,356.07 48.54,80.4 76.38,134.06 102.5,214.97 21.73,67.24 34.94,222.92 52.14,258.03 142.25,-22.44 61.57,-253.27 61.54,-253.45 -7.63,-47.67 0.21,-53.91 0.79,-96.41 2.85,-213.02 10.66,-847.13 -17.96,-948.46 -225.07,-36.83 -477.15,-3.93 -695.78,-23.74 -29.46,-51 -65.86,-101.39 -101.1,-140.33 57.25,-8.52 106.61,-3.69 147.81,-34.94z"/>
   <path class="fil0" d="M11394.06 7366.79c47.29,-75.03 79.24,-300.98 156.44,-400.81l42.46 6.16 -19.01 -16.36c-21.42,-28.12 -0.01,5.74 -22.05,-34.86 33.28,-89.13 -7.17,-14.41 53.6,-60.6 52.29,-39.75 1.29,54.59 15.34,-37.47 0.24,-1.52 0.18,-6.62 1.61,-9.49l145.55 48.49c-40.31,-43.79 -96.15,-55.57 -149.81,-70.35 10.77,-137.87 48.41,-115.59 86.24,-116.35 -3.24,-3.75 -7.43,-8.34 -9.81,-11.18l-30.3 -38.8c25.61,-27.43 34.57,-13.73 53.96,-56.5 11.69,-25.79 17.29,-64.66 25.15,-90.44 19.12,-62.56 14.91,-112.53 42.58,-176.46 46.74,-108.01 79.02,-204.07 85.2,-318.89 1.05,-19.63 10.9,-98.41 10.93,-100.33l-68.39 -205.13 -135.82 -155.67c-1.9,-2.96 -3.6,-7.01 -5.39,-10.01 -20.4,-34.28 6.63,-50.58 -106.81,-50.77 -21.87,75.57 -32.73,154.32 -10.76,245.22 17.06,70.56 46.88,158.14 42.03,241.95 -17.49,302.3 -30.79,458.75 -93.57,736.79 -18.94,83.9 -29.81,149.37 -46.6,224.51 -20.77,92.92 -18.87,152.59 -20.67,229.42 -1.63,69.48 -36.11,141.47 -42.1,227.93z"/>
   <path class="fil0" d="M10534.58 6765.51c-81.92,-39.85 -524.43,-15.27 -651.2,-18.89 11.75,53.46 51.16,62.09 77.48,116.95 53.57,111.64 40.62,114.94 166.62,238.85 62.05,61 208.27,267.82 250.85,343.22 26.42,46.8 46.55,82.47 79.13,125.07 21.73,28.41 23.78,31.97 41.21,60.61 32.26,53.01 -10.06,14.19 38.43,52.16 32.9,-66.32 26.22,-830.78 -2.52,-917.97z"/>
   <path class="fil0" d="M9020.2 10469.13c-8.54,48.07 -43.28,45.24 -97.23,63.78 -62.18,21.38 -70.45,21.1 -145.17,12.53 6.27,63.38 44.71,-0.75 -13.28,39.61 -36.91,-9.21 -92.64,25.43 -142.01,39.21 -46.69,13 -114.05,10.43 -178.21,14.45 -66.77,4.2 -129.47,14.98 -195.3,11.04 -162.45,-9.71 -375.07,-26.95 -520.85,-0.39 -70.21,12.79 -311.47,19.47 -387.45,14.54 -28.24,54.47 21.01,55.96 -65.39,41.28 45.34,47.44 41.02,10.45 80.07,87.7 41.48,82.06 -62.92,-55.6 10.42,17.91 57.13,57.26 332.48,22.51 363.01,13.47 427.31,-126.51 705.92,-35.84 1289.39,-233.41l199.54 -81.42c54.93,-27.05 68.2,-28.67 75.44,-94.02 -103.9,-61.58 -76.07,5.52 -196.4,34.34l-76.58 19.38z"/>
   <path class="fil0" d="M9082.56 11679.5c-42.09,-170.14 83.28,-215.21 236.25,-216.79 -20.45,-37.3 23.45,-30.9 -20.62,-30.9 84.95,-37.49 187.35,-95.45 225.05,-175.12 -50.65,21.16 -8.9,2.44 -37.58,18.33l-52.41 33.59c-69.78,31.53 18.03,-11.36 -56.82,-9.65 -136.83,70.98 -158.78,103.73 -330.79,141.67 -288.82,63.72 -504.8,-225.63 -610.91,-283.75 -83.1,-45.49 -212.77,-40.69 -308.85,-38.55l-89.91 13.9c17.75,60.92 13.53,48.99 91.09,43.53 -35.84,32.34 -29.17,19.4 -17.28,78.78l103.87 8.49c35.54,62.31 -2.95,48.5 83.3,73.09 219.87,62.69 293.82,253.05 520.5,274.8 110.91,10.63 128.24,-30.73 225.87,-69.01 2.71,6.92 2.57,19.77 5.53,37.61 3.96,23.77 -2.64,3.83 7.15,39.72 5.15,18.84 18.03,42.16 26.56,60.26z"/>
   <path class="fil0" d="M8765.03 8789.56c34.47,51.92 47.89,46.29 102.83,92.95 199.28,169.18 20.36,210.62 17.17,401.89 -4.8,288.74 172.27,112.31 225.27,345.26 9.42,41.43 30.99,104.77 59.25,136.83 -19.08,-136.03 -26.96,-93.31 41.43,-175.81 153.43,-185.05 -182.24,-243.42 -216.09,-343.67 -30.06,-89 112.11,-190.31 127.39,-283.57 21.43,-130.76 -67.11,-234.98 -146.77,-268.15l-44.13 -37.26c-13.42,-9.29 -23.61,-14.25 -35.87,-21.87 -92.19,-57.28 -134.07,-119.17 -235.9,-145.15l7.59 -62.34c-84.1,0.08 -145.69,-44.64 -170.46,-121.39 -20.24,-62.7 6.62,-179.19 17.59,-236.4 -94.46,65.79 -8.76,-15.06 -69.85,124.74 -2.78,-4.02 -4.74,-9.59 -6.06,-13.35 -18.59,-52.85 -17.16,-74.14 -4.04,-128.56 15.99,-66.39 26.61,-70.29 27.16,-149.74 -70.49,67.27 -104.82,412.26 -20.78,546.64 62.07,99.24 195.46,316.98 324.27,338.95zm-248.09 -1115.31c48.59,-35.24 35.58,-22.7 54.13,-72.77 -34.24,-69.79 -73.94,-33.8 -130.81,-109.55 -56.81,-75.67 -36.92,-83.26 -47.49,-186.6l-73.94 -30.35c-2.24,-5.55 -8.34,-3.69 -12,-6.35 26.89,-68.09 23.67,-22.6 26.33,-92.09 -71.13,54.91 -96.66,245.37 -92.42,325.1 9.39,176.35 133.36,145.04 263.21,114.24l11.63 20.58c0.58,4.41 1.25,12.62 1.75,17.16 0.61,5.43 -0.52,13.76 -0.39,20.63zm-163.96 -890.87c67.57,7.62 22.63,22.32 98.25,63.55l0.73 49.72c97.28,-3.09 89.73,78.2 179.68,11.38 60.77,-69.48 -56.55,-49.38 -148.17,-174.6 -65.01,-88.87 -110.27,-269.77 -123.11,-390.57 -9.95,-93.63 -17.9,-188.92 -51.82,-280.72 -23.23,-62.84 -13.82,-52.79 -87.33,-65.81l-76.55 163.2c-1.12,3.38 -2.68,7.08 -3.8,10.44 -41.05,122.77 -8.21,122.94 27.39,210.68 41.08,101.29 104.92,282.48 191.58,347.54l-6.85 55.19z"/>
   <path class="fil0" d="M14527.97 10262.55c-118.78,103.14 -308.98,-158.36 -397.42,16.19 11.59,31.44 7.63,24.34 32.71,45.38 93.54,78.44 354.99,102.94 480.87,93.54 169.82,-12.66 374.14,-197.22 392.26,-272 -443.06,39.95 -861.48,-178.44 -736.04,20.03 15.71,24.88 76.38,46.77 106.41,58.16l99.49 29.22c3.23,1.13 8.37,3.58 10.96,4.56 2.58,0.99 7.52,2.65 10.76,4.92z"/>
   <path class="fil0" d="M5883.83 10206.04c151.55,-49.78 208.48,-189.71 -69.24,-129.98 -204.95,44.09 -292.21,68.26 -535.61,53.51 41.05,108.61 235.67,262.16 389.69,268.62 158.55,6.65 422.84,-28.7 492.54,-129.25 -69.21,-175.07 -277.85,54.24 -391.09,-27.38l113.71 -35.52z"/>
   <path class="fil0" d="M10594.83 13107.85c1.93,3.44 5.54,7.28 7.28,9.32l22.62 25.44c57.79,66.36 36.12,132.91 35.88,274.76 -0.62,364.55 -1.89,206.26 -66.69,310.81l240.04 -3.4c-2.63,-2.69 -6.68,-5.79 -8.52,-7.43 -110.8,-98.61 -53.51,-267.67 -52.3,-269 63.89,-30.88 213.6,-22.07 295.59,-7.86 19.95,62.31 12.83,166.56 6.58,233.7 -31.82,26.77 -49.61,30.08 -62.9,56l239.77 0.98c-35.05,-58.89 -56.03,-14.81 -63.99,-126.04 -4.28,-59.65 -0.29,-129.04 -0.29,-189.99 0.06,-346.42 11.76,-207.52 63.9,-303.98l-236.08 -1.89c8.67,14.67 101.36,58.59 57.97,243.31 -0.68,2.87 -3.65,13.07 -4.23,11.11 -0.55,-1.93 -2.62,7.42 -4.65,10.76 -68.34,32.98 -201.55,14.76 -287.71,7.77 -17.03,-51.77 -14.01,-112.76 -5.36,-163.99 11.63,-68.99 27.05,-67.49 58.75,-107.48l-235.66 -2.9z"/>
   <path class="fil0" d="M13718.32 13670.21c-24.21,-72.15 -19.46,-286.03 -16.44,-382.57 0.76,-24.37 0.57,-44.37 5.97,-66.1l26.27 -56.98c421.98,-8.29 309.05,649.69 -15.8,505.65zm-192.49 -547.1c69.92,90.64 67.4,-48.32 65.17,296.37 -2.57,400.85 -13.08,207.77 -64.49,322.34 133.12,-4.97 317.72,19.24 427.36,-33.67 211.17,-101.93 244.77,-461.97 -16.75,-565.94 -68.86,-27.39 -332.58,-37.63 -411.29,-19.1z"/>
   <path class="fil0" d="M12195 13177.97c222.88,-23.8 148.92,293.34 16.5,259.64 -46.79,-11.91 -31.36,-6.39 -34.57,-68.01 -3.08,-59.28 -4.3,-140.61 18.07,-191.63zm-190.12 -58.72c61.23,56.83 60.21,72.39 61.41,131.21 1.24,62.08 -0.94,127.57 -1.38,190.02 -2.66,388.63 -11.48,188.58 -66.16,289.24l247.9 4.87 -49.87 -47.8c-19.19,-27.51 -12.57,-12.26 -18.06,-56.81 -3.84,-31.13 -3.43,-120.36 14.65,-135.73 137.29,-52.6 54.93,257.69 402.24,239.08l-47.33 -35.8c-16.54,-10.27 -18.3,-7.65 -36.72,-21.91 -25.49,-19.7 -33.96,-35.89 -52.92,-63.06 -25.37,-36.36 -75.27,-103.19 -91.45,-158.86 39.08,-44.92 72.21,-78.23 75.54,-146.16 11.02,-224.58 -245.39,-187.18 -437.85,-188.29z"/>
   <path class="fil0" d="M11527.79 13179.19c254.98,-128.47 424.46,344.6 186.62,478.11 -258.8,145.28 -452.27,-344.26 -186.62,-478.11zm-230.47 337.13c103.5,347.66 745.23,269.81 634.39,-187.51 -38.47,-158.68 -213.12,-251.55 -409.8,-210.93 -153.14,31.63 -284.22,198.14 -224.59,398.44z"/>
   <path class="fil0" d="M6662.85 13463.36c-75.65,-354 318.05,-450.32 405.23,-120.1 34.27,129.78 -25.86,274.41 -131.46,305.59 -150.67,44.47 -249.29,-71.03 -273.77,-185.49zm518.93 -2.2c79.96,-437.63 -585.21,-500.41 -641.48,-126.18 -63.66,423.4 568.43,525.97 641.48,126.18z"/>
   <path class="fil0" d="M8520.3 4601.61c6.36,46.91 -86.21,151.37 32.26,505.71 41.01,122.66 60.73,203.08 152.76,321.42 39.22,50.41 41.3,57.14 119.45,63.39l-32.78 -69.35c-24.1,-17.31 -6.56,-2.53 -26.09,-22.98 -46.69,-48.86 -55.95,-108.73 -63.47,-169.36 -24.97,-201.08 16.1,-725.61 -8.64,-790.4 -73.38,-10.83 -68.77,6.72 -92.69,62.26 -46.33,107.5 -43.85,85.49 -80.8,99.31z"/>
   <path class="fil0" d="M6483.45 13091.38c-66.43,-4.59 -165.92,-13.09 -202.9,10.58 98.87,70.76 67.03,115.09 73.15,371.99 -70.41,-26.42 -158.86,-136.91 -214.39,-196.08 -44.44,-47.37 -149.24,-179.41 -203.11,-186.59 -5.49,99.6 2.77,228.07 4.94,331.58 6.23,296.21 -28.63,204.93 -63.46,273.37l192.49 3.33c-27.62,-69.36 -22.6,5.74 -46.97,-75.74l-15.67 -306.27c55.95,14.03 261.17,240.76 306.3,295.11 88.57,106.67 50.82,77.7 108.12,87.57 5.21,-115.66 -1.66,-235.81 -2.41,-352.01 -0.82,-127.31 -13.22,-172.65 33.68,-223.54 36.15,-39.23 11.09,23.72 30.23,-33.3z"/>
   <path class="fil0" d="M10349.4 13142.71c51.59,67.73 43.84,283.92 30.41,359.87 -89.79,-54.33 -349.63,-386.82 -415.21,-396.3 -4.7,103.22 -0.7,223.22 0.3,328.57 0.57,63.05 10.01,244.69 -67.35,278.47l186.49 4.53c-44.64,-96.55 -46.38,-30.62 -50.71,-181.28 -1.95,-68.15 -3.67,-138 -1.59,-206.16 109.95,29.92 331.26,385.3 419.05,389.76 4.58,-117.58 -14.42,-497.93 25.29,-567.29 2.1,-3.65 19.37,-23.63 22.22,-26.96 1.82,-2.13 7.21,-3.03 8.57,-8.59 1.38,-5.61 6.22,-5.39 8.83,-9.71l-195.47 1.69 29.17 33.4z"/>
   <path class="fil0" d="M15842.03 10169.86c26.55,69.41 86.5,65.74 106.21,144.6 -82.13,-12.43 -146.58,-129.12 -320.31,-129.09 12.21,112.8 309.63,588.33 617.33,273.18 -16.36,-31.21 1.18,-4.58 -19.22,-27.56 -14.1,-15.86 -5.23,-6.12 -22.77,-22.15 -145.78,-133.1 -259.45,-286.75 -361.24,-238.98z"/>
   <path class="fil0" d="M4398.98 10269.94c26.58,-88.46 73.29,-74.11 89.26,-133.86 -111.36,-21.88 -151.88,40.11 -222.28,116.77 -47.29,51.5 -139.65,103.53 -174.06,170.07l86.46 70.53c258.1,174.32 501.24,-241.35 517.28,-332.83 -141.81,-11.53 -188.44,77.71 -296.66,109.32z"/>
   <path class="fil0" d="M15534.89 10182.56c-41.12,-2.65 -82.13,-4.06 -114.96,18.12 20.36,37.81 -7.12,28.43 74.96,77.47 53.68,32.07 48.04,19.8 66.24,72.92 -144.11,-9.56 -135.45,-128.93 -309.01,-119.19 15.01,73.12 259.12,382.35 336.18,425.33 4.3,1.09 242.29,-15.83 291.73,-51.9 -31.53,-65.93 -152.1,-141.41 -200.72,-192.86 -36.38,-38.49 -49.78,-63.54 -70.56,-114.63 -23.9,-58.75 -36.53,-72.34 -73.86,-115.26z"/>
   <path class="fil0" d="M10898.29 10697.02l-54.81 -7.64c114.19,-56.73 101.2,-117.85 188.34,-143.38 17.54,-5.15 29.38,-5.63 49.94,-12.73 34.59,-11.95 11.64,0.14 31.18,-15.66 -61.81,-4.23 -36.2,9.5 -111.57,16.2l26.2 -35.44c119.61,-147.45 41.9,-87.01 145.06,-167.96 -36.61,-7.57 -50.07,22.83 -34.26,-42.65 8.25,-34.11 -1.64,-0.32 16.52,-25.06l20.64 -24.76c39.85,-51.66 45.26,-65.52 51.57,-111.22 -31.7,-32.07 31.67,0.52 -35.86,-22.31 -0.07,2.54 -3.1,37.12 -4.23,40.34l-136.64 182.68c-38.82,41.82 -58.92,62.14 -96.12,94.49 -101.94,88.65 -113.07,91.85 -230.79,148.83 -193.03,93.39 -117.83,60.23 -300.42,80.3 -70.49,7.74 -94.58,-1.35 -120.72,65.01 8.34,2.86 51,-37.72 61.26,57.3 58.78,-25.86 97.13,-21.8 161.43,-5.28 32.69,8.4 31.04,15.16 97.77,6.99 63.3,-7.73 84.24,-22.99 135.48,-41.87 60.14,-22.17 15.34,-5.26 68.59,-14.06l71.44 -22.12z"/>
   <path class="fil0" d="M4761.83 10327.45c21.13,-63.03 18.3,-52.39 76.04,-86.28 39.26,-23.04 55.68,-28.53 59.15,-79.43 -195.26,-37.63 -150.04,82.1 -232.29,196.42 -59.76,83.08 -171.92,139 -219.1,208.47 41.36,33.92 91.98,31.97 143.63,39.97 54.46,8.44 90.97,20.62 159.38,21.12 47.59,-66.16 235.15,-242.21 315.14,-416.11 -151.36,-34.79 -166.08,93.05 -301.95,115.84z"/>
   <path class="fil0" d="M14243.02 13460.28c-1.28,309.3 7.62,212.89 -74.91,276.22 33.47,19.32 387.76,11.52 413.9,4.33l-3.81 -130.26c-80.6,8.08 1.07,21.54 -69.81,70.31 -25.48,17.55 -79.5,22.63 -113.65,8.28 -66.75,-28.03 -43.68,-180.59 -28.92,-223.09 39.27,-17.96 51.12,-25.03 100.54,0.09 57.87,29.43 -18.45,26.08 64.89,35.66l0.44 -147.03c-94.28,11.1 0.81,12.24 -75.28,43.33 -42.49,17.38 -54.39,10.23 -97.34,4 -4.28,-70.82 -33.47,-213.07 46.14,-233.1 121.89,-30.68 128.62,64.54 178.52,82.75l-5.55 -129.43 -389.43 -3.32 54.27 341.26z"/>
   <path class="fil0" d="M12844.97 13497.56c1.38,-47.09 7.6,-60.22 24.26,-100.42l37.93 -64.57c27.82,36.19 62.52,106.46 64.53,166.65l-126.72 -1.66zm-67.9 191.97c-12.68,-40.04 22.21,-100.87 40.95,-140.89l201.88 8.27c18.85,37.91 37.35,75.78 47.07,128.55l-51.55 50 240.75 3.01c-23.54,-44.06 -28.33,-20.71 -61.67,-65.54l-223.46 -491.68c-22.34,-52.4 -10.36,-46.16 -50.26,-62.76l-262.73 580.67c-20.68,33.45 5.34,-26.06 -19.52,34.93l161.79 0.28 -23.25 -44.84z"/>
   <path class="fil0" d="M11227.1 10126.72c48.37,-16.82 69.44,-104.51 81.75,-149.82 21.06,-77.58 25.75,-111.85 53.38,-180.84l120.87 -340.69c54.6,-143.59 164.91,-308.4 253.72,-440.36 16.6,-24.66 33.37,-46.55 48.19,-69.37l44.5 -65.63c-25.29,-39.49 -52.63,-16.65 -48.37,-83.99l-91.44 55.46c-187.61,106.89 -327.7,744.08 -372.73,929.42 -62.2,256.06 -48.73,168.97 -76.96,255.9l-12.91 89.92z"/>
   <path class="fil0" d="M8283.84 13476.05c0.22,-66.26 57.24,-155.25 57.31,-155.71 0.84,-4.86 4.23,-5.68 6.5,-8.38 26.63,27.8 69.66,121.5 67.41,168.55l-131.22 -4.46zm-22.82 239.41c-20.17,-40.12 -83.86,-25.75 2.05,-182.35 67.69,-4.77 174.82,-23.28 211.14,28.39 66.6,94.8 -3.63,139.79 -10.76,155.45l240.72 -6.75c-75.25,-60.15 -60.39,-33.34 -105.32,-130.6 -45.33,-98.06 -191.63,-443.99 -237.55,-473.97 -27.9,21.23 -164.55,391.12 -200.58,480.68 -28.08,69.77 -69.88,93.41 -81.59,126.91l181.89 2.24z"/>
   <path class="fil0" d="M6720.51 9750.73l-18.72 -83.62c-116.83,-59.99 -157.71,-42.65 -212.98,-82.02 52.41,-33.44 128.05,9.22 185.54,5.7 25.6,-118.81 -95.72,-81.14 -292.04,-138.33 -138.5,-40.34 -195.56,-160.66 -279.23,-184.04 -25.94,244.31 28.08,260.43 206.46,344.39 79.05,37.23 311.99,139.9 410.97,137.92z"/>
   <path class="fil0" d="M9401.16 13100.76c46.1,43.11 57.38,83.47 58.09,146.58 0.64,57.88 -0.03,117 0.28,175.12 2.14,390.64 -13.65,202.19 -62.64,301.18l400.04 -1.42 -3.84 -133.2c-71.56,6.77 -20.92,141.37 -206.25,65.24 -20.53,-70.65 -16.61,-148.22 -9.87,-221.35 155.95,-6.55 87.76,32.47 166.21,53.57l-7.03 -161.15c-11.35,4.1 -133.19,141.3 -163.24,20.44l4.98 -188.64c152.63,-52.02 157.6,52.53 213.69,79.1l-8.11 -132.57 -382.31 -2.9z"/>
   <path class="fil0" d="M13599.14 9584.01c53.72,30.6 149.76,-10.19 211.51,-12.72 -27.12,117.73 -248.5,-13.23 -254.16,195.22 107.81,-2.46 306.63,-94.73 403.43,-135.39 186.76,-78.42 234.77,-89.73 217.11,-342.62 -86.19,18.15 -177.38,166.09 -326.63,192.48 -49.15,8.7 -60.33,9.21 -100.63,19.74 -98.6,25.77 -141.2,-18.18 -150.63,83.29z"/>
   <path class="fil0" d="M9713.54 6422.31c-13.9,22.74 -8.89,17.91 -18.43,42.1l67.62 89.31 142.17 -6.3c102.74,-1 222.86,-14.03 321.77,-4.31 86.58,8.5 213.19,24.22 311.54,10.31 15.76,-135.54 50.44,-141.18 -340.48,-145.66 -126.21,-1.44 -394.04,28.78 -484.19,14.55z"/>
   <path class="fil0" d="M5140.17 9904.72c-3.11,114.97 212.21,189.18 325.12,183.3 81.98,-4.28 371.97,-72.42 410.91,-108.28 -32.43,-111.56 -130.02,-13.34 -235.86,-2.53 51.55,-124.9 149.53,-49.34 102.07,-159.4 -33.12,-5.19 -192.8,62.71 -258.04,76.5 -161.02,34.02 -204.79,9.33 -344.2,10.41z"/>
   <path class="fil0" d="M14687.55 10003.31c-120.69,-0.26 -174.26,-96.24 -259.6,-30.76 0.22,72.39 18.74,45.38 160.19,82.67 182.84,48.17 265.56,89.39 428.24,14.89 84.37,-38.64 130.35,-38.3 141.42,-137.65 -190.98,14.55 -291.7,-2.17 -452.67,-51.12 -47.49,-14.45 -178.09,-83.77 -160.97,-2.7 10.89,51.57 115.23,56.24 143.39,124.67z"/>
   <path class="fil0" d="M7680.74 13554.46c-93.2,265.43 524.46,179.1 328.46,-106.05 -39.91,-58.07 -199.43,-150.69 -210.86,-210.38 -12.45,-65.05 33.11,-107.67 92.23,-93.74 75.78,17.88 34.3,71.58 109.69,93.23l-5.61 -113.78c-159.33,-92.11 -408.39,28.29 -270.54,219 67.85,93.89 316.04,188.74 160.35,313.89 -191.83,31.43 -117.75,-100.89 -203.72,-102.17z"/>
   <path class="fil0" d="M7246.76 13550.33c-9.03,71.94 -20.06,119.21 52.73,144.97 59.67,21.11 125.63,22.02 185.32,3.76 106.01,-32.46 157.77,-150.17 83.11,-257.21 -36.53,-52.35 -191.34,-140.67 -207.33,-204.67 -15.8,-63.29 31.49,-109.69 95.27,-94.65 73.78,17.41 44.78,69.79 92.85,94.49 95.67,-152.38 -136.2,-169.71 -228.86,-121.06 -113.39,59.53 -77.49,189.84 -3.03,257.63 55.47,50.51 216.35,134.29 172.65,238.91 -21.51,51.5 -89.02,62.18 -142.99,37.03 -86.04,-40.08 -28.5,-79.51 -99.72,-99.2z"/>
   <path class="fil0" d="M13731.98 9214.37c32,27.55 -2.91,17.4 46.7,17.66 39.88,0.2 60.12,-40.1 114.92,-26.8 -34.12,88.81 -268.96,59.14 -245.13,222.36 100.55,20.89 214.33,1.96 293.27,-36.53 90.16,-44 134.6,-97.83 210.8,-137.88 2.85,-57.1 -2.28,-147.38 -37.56,-190.36 -89.91,21.65 -119.32,61.92 -190.59,84.84 -74.33,23.94 -133.12,35.57 -192.41,66.71z"/>
   <path class="fil0" d="M6625.75 9414.11c-0.82,-161.38 -170.48,-120.53 -237.34,-206.12 42.64,-23.98 61.95,9.57 141.92,19.64 -17.35,-35.31 -30.41,-51.87 -84.72,-64.66 -251.56,-59.22 -130.3,-70.71 -287.9,-117.27 -32.67,42.93 -50.84,137.33 -25.85,185.6 12.07,23.31 103.41,88.2 131.08,106.36 88.86,58.38 236.54,110.8 362.81,76.45z"/>
   <path class="fil0" d="M8996.21 13322.71c72.67,73.74 316.95,247.38 199.5,335.21 -170.87,43.63 -141.55,-59.72 -208.11,-101.4 -98.91,145.04 115.98,181.01 211.57,155.73 114.38,-30.25 183.77,-153.09 100.21,-267.64 -50.5,-69.23 -187.38,-127.52 -206.13,-201.79 -16.06,-63.66 30.38,-108.6 91.46,-94.8 82.62,18.67 37.81,75.58 111.89,94.95l0.51 -103.25c-20.64,-17.8 -31.24,-25.07 -64.65,-33.8 -152.97,1.58 -278.34,46.65 -236.25,216.79z"/>
   <path class="fil0" d="M11314.66 8345.44l34.7 11.48 -86.11 93.82c130.6,-43.65 158.7,-127.6 292.8,-127.23 201.68,0.55 154.25,113.66 252.45,146.65 24.46,12.64 40.63,-31.7 116.71,-26.68 3.05,-102.16 -11.32,-138.26 -86.99,-180.47 -45.88,-25.6 -123.73,-62.26 -180.91,-70.59 -130.33,-18.97 -278.05,40.72 -342.65,153.02z"/>
   <path class="fil0" d="M11286.51 6347.8c43.8,-0.75 34.49,12.65 55.89,-53.18 53.7,-165.26 53.33,-554.05 -101.87,-547.48 -174.37,7.4 23.2,423.93 30.97,449.55 21.24,69.93 2.29,123.83 15.01,151.11z"/>
   <path class="fil0" d="M10030.89 8545.17c33.38,-178.46 -3.14,-475.33 -127.2,-590.59l-135.29 -139.41c-1.45,48.97 3.7,62.21 23.2,107.92 99.99,234.36 176.89,441.53 174.24,726.63 42.03,-25.16 19.8,5.87 49.25,-45.46 10.62,-18.5 11.06,-33.73 15.8,-59.09z"/>
   <g>
    <path class="fil0" d="M11168.57 11985.96c31.09,23.65 28.15,25.05 46.97,67.73 23.12,52.45 25.06,43.83 29.96,96.15l-137.41 -7.42 60.48 -156.46zm-683.13 -159.63c139.62,0.32 180.31,159.59 88.4,236.1 -151.98,126.49 -121.69,-175.59 -88.4,-236.1zm-132.16 0.8c5.27,97.22 5.53,196.18 6.82,293.66 4.11,310.77 -14.17,157.75 -61.61,249.65l219.01 -15.71c-57.08,-57.84 -55.77,-63.77 -50.88,-222.94 147.15,-3.11 108.65,151.46 228.35,213.92 76.85,40.12 293.53,33.46 395.64,37.83 -11.77,-75.45 -33.82,23.62 -35.84,-72.52 -0.34,-16.2 28.73,-99.76 32.52,-111.99l202.27 0.46c68.42,158.95 44.6,99.92 6.28,182.83l219.72 -2.39c-17.82,-36.6 -50.57,-19.88 -167.16,-294.96 -23.89,-56.35 -115.53,-297.18 -166.18,-306.42 -27.5,41.57 -93.77,241.14 -120.82,305.14 -19.03,45.06 -45.65,101.41 -65.75,153.27 -36.82,95.01 -45.85,70.97 -80.82,135.37 -146.84,-48 -169.14,-88.31 -264.63,-267.3 50.4,-64.85 144.47,-187.29 16.8,-283.87 -78.07,-59.06 -264.35,-47.88 -371.64,-48.94 20.62,46.05 15.58,22.23 57.92,54.91z"/>
    <path class="fil0" d="M11752.49 11840.84c193.43,-24.17 202.79,269.57 -5.99,255.09l5.99 -255.09zm-172.83 536.15l229.09 7.96c-23.73,-79.05 -76.67,39.24 -62.39,-242.01 109,-2.3 70.17,26.59 166.54,157.96 59.96,81.76 130.52,88.67 246.93,88.52 -28.45,-47.94 -138.38,-46.86 -231.54,-275.28 43.44,-47.95 66.97,-59.28 74.78,-131 24.53,-225.37 -252.16,-203.02 -427.12,-197.87 33.18,68.41 50.56,-6.44 59.19,110.88l2.22 351.09c-0.59,138.96 -21.79,64.39 -57.7,129.75z"/>
    <path class="fil0" d="M9143.21 12350.76l193.54 1.29c-33.92,-69.31 -49.26,10.98 -60.83,-146.55 -5.57,-75.55 -3.15,-147.8 -4.48,-223.39 109.24,27.18 329.07,368.48 408.47,378.62 27.5,-140.92 -24.43,-484.64 23.37,-555.42l37.87 -36.35c1.71,-1.56 5.73,-4.62 8.01,-7.47l-198.67 -0.6c92.35,100.55 55.01,175.3 67.28,383 -66.71,-26.74 -155.99,-139.68 -205.94,-193.75 -53.48,-57.86 -137.21,-171.79 -212.67,-192.41l3.76 498.32c-11.41,106.05 -40.82,40.78 -59.71,94.71z"/>
    <path class="fil0" d="M9035.48 11806.77l61.7 -42.76 -208.26 -7.37c55.75,79.87 67.49,-20.54 71.61,268.46 1.48,102.84 12.58,227.32 -77.4,271.09 -245.49,119.5 -237.15,-347.09 -198.36,-501.52l63.86 -31.67 -253.8 -11.26c99.54,107.25 73.89,46.72 78.89,348.28 2.21,133.4 41.67,222 163.54,250.23 352.71,81.67 300.55,-292.17 298.22,-543.48z"/>
    <path class="fil0" d="M12768.63 11990.2l75.7 163.67 -142.91 8.7c7.56,-40.19 14.58,-59.84 27.43,-90.49 8.25,-19.64 8.87,-23.25 16.33,-39.43l23.45 -42.45zm-270.3 397.4l181.1 5.65c-26.4,-81.06 -82.09,23.02 -0.7,-177.84l198.91 -2.7c81.28,166.32 33.42,116.55 6.87,185.32l228.95 -3.15c-18.4,-35.56 -56.09,-41.08 -96.05,-127.38l-145.54 -320.51c-18.57,-42.93 -45.7,-138.51 -92.35,-155.59l-192.01 457.63c-39.85,97.84 -44.52,76.73 -89.18,138.57z"/>
    <path class="fil0" d="M9887.99 12323.12l-71.84 41.44 402.48 7.23 -5.85 -132.9c-53.09,18.23 -30.29,22.3 -55.79,74.99 -192.33,35.96 -173.94,-48.34 -163.73,-221.66 43.47,-7.61 53.75,-14.56 97.25,1.89 68.23,25.81 -3.35,36.37 71.41,36.66l-2.95 -141.76c-54.43,20.2 -24.63,27.24 -70.12,45.48 -122.62,49.14 -113.93,-96.66 -86.16,-228.56 204.25,-7.43 125.36,36.8 192.62,84.44 17.83,-37.86 18.24,-77.03 3.11,-119.4l-384.45 -7.05c67,75.16 67.93,-7.66 69.28,242.71 0.57,105.37 1.31,211.08 4.74,316.49z"/>
    <path class="fil0" d="M8101.63 12304.51l-64.69 48.13 251.22 4.63c-53.47,-34.73 -62.86,-30.18 -74.53,-103.12 -7.85,-49.21 -7.62,-130.46 -3.71,-180.68 145.41,-16.27 95.54,24.26 165,49.45l2 -147.66c-77.56,9.32 -7.85,70.46 -165.3,47.03 -11.26,-70.87 -19.75,-164.8 8.49,-227.21 162.54,-41.92 141.25,66 197.6,81.09l7 -122.48 -386.07 -4.61c19.82,87.69 56.69,-74.21 63.49,236.04 2.19,99.91 10.94,222.22 -0.5,319.39z"/>
    <path class="fil0" d="M12190.2 12372.07l219.16 -17.03c-67.22,-58.85 -47.17,-174.43 -47.01,-286.3 0.1,-54.37 -4.03,-135.31 2.61,-186.83 12.45,-96.28 51.82,-57.7 69.89,-91.96l-248.1 -5.33c64.43,79.9 65.69,-39.09 66.58,284.58 0.18,61.4 3.55,129.57 1.32,190 -3.21,87.47 -21.17,66.57 -64.45,112.87z"/>
   </g>
   <path class="fil0" d="M14975.84 9549.14c27.85,69.24 99.26,21.72 171.52,71.87 -102.46,73.49 -257.33,-33.47 -356.44,88.63 74.51,55.46 247.48,59.96 329.17,46.88 106.57,-17.05 191.22,-74.52 203,-180.92 -72.87,-12.05 -299.96,-60.71 -347.25,-26.46z"/>
   <path class="fil0" d="M4990.03 9554.69c-1.25,213.92 349.24,209.69 476.63,159.62l42.88 -23.42c-76.66,-97.1 -225.9,-48.23 -333.09,-75.16 23.38,-24.88 24.89,-28.06 85.93,-44.29 40.22,-10.72 28.23,1.78 63.59,-24.98 -33.98,-73.06 -139.65,-11.55 -335.94,8.23z"/>
   <path class="fil0" d="M15485.88 10663.68c-9.43,-54.12 -41.81,-63.8 -79.15,-107.64 -62.7,-73.69 -183.76,-268.09 -226.69,-297.39 -96.42,17.59 -83.27,39.83 -49.01,124.84 50.89,126.23 117.93,299.06 354.85,280.19z"/>
   <path class="fil0" d="M4832.9 10634.39c227.74,17.87 347.43,-185.59 372.58,-378.24l-73.72 -24.8c-41.79,28.08 -108.69,146.58 -155.86,205.66 -54.83,68.69 -141.2,154.19 -143,197.38z"/>
   <path class="fil0" d="M13487.43 10011.6c42.5,-0.45 221.22,-50.02 280.62,-66.15 88.71,-24.09 128.1,-142.25 153.52,-241.73 -84.59,15.07 -191.74,80.36 -260.58,118.43 -83.1,45.95 -190.74,68.05 -173.56,189.45z"/>
   <path class="fil0" d="M6787.37 9993c-10.69,-131.96 -88.63,-138.42 -189.21,-192.69 -63.61,-34.32 -198,-117.96 -261.59,-127.04 15.13,35.42 98.41,216.62 134.36,240.7 37.61,25.22 272.73,80.19 316.44,79.03z"/>
   <path class="fil0" d="M16018.25 10125.55c5.02,74.01 280.55,372.56 414.85,187l-46.16 -31.35c-109.87,-69.09 -192.21,-257.43 -368.69,-155.65z"/>
   <path class="fil0" d="M3914.63 10292.98c80.2,69.62 176.81,49.4 248.29,-12.13 27.44,-23.65 144.93,-137.81 155.14,-178.35 -141.31,-95.66 -237.26,44.88 -371.9,150.61 -28.99,22.76 -21.98,5.62 -31.53,39.87z"/>
   <path class="fil0" d="M10834.91 6003.47c-85.63,164.84 -3.59,229.61 20.46,319.89 16.51,61.92 -7.21,73.34 24.96,118.19 79.21,9.27 61.92,-6.38 80.87,-92.66 21.55,-98.16 19.04,-317.34 -126.29,-345.42z"/>
   <path class="fil0" d="M13747.4 9110.41c107.23,10.26 446.92,-68.59 374.62,-231.86l-22.77 -4.16c-71.63,0.89 -89.86,38.28 -198.58,65.46 -106.85,26.73 -142.89,65.87 -153.27,170.56z"/>
   <path class="fil0" d="M6510.58 9097.18l1.85 -53.46c-22.16,-86.45 -77.97,-94.81 -128.42,-109.34 -64.63,-18.61 -163.19,-73.42 -228.4,-75.23 -39.18,115.46 26.32,139.03 111.58,182.28 69.44,35.24 168.64,85 243.39,55.75z"/>
   <path class="fil0" d="M14895.82 10493.3c20.65,20.87 -2.65,2.69 27.61,24.02 62.84,44.3 191.7,111.69 262.32,119.73l-132.35 -308.34c-76.58,11.32 -120.81,94.67 -157.58,164.59z"/>
   <path class="fil0" d="M5119.39 10605.1c69.65,-2.26 243.5,-92.42 297.6,-129.71 -24.25,-45.43 -98.68,-158.12 -154.27,-180.44l-143.33 310.15z"/>
   <path class="fil0" d="M14376.62 10553.59c-24.27,-38.78 3.11,-18.48 -63.16,-31.19l-246.62 -43.95c-56.1,-12.85 -96.51,-40.46 -150.41,-12.69 -64.45,33.18 -80.77,59.05 -77.54,95.99 79.23,16.25 451.93,5.48 537.73,-8.16z"/>
   <path class="fil0" d="M6836.41 10183.4c3.12,-97.19 -40.35,-120.07 -123.15,-146.97 -84.22,-27.38 -150.53,-57.8 -232.15,-70.84 14.36,119.51 58.93,126.74 155.39,159.55 50.65,17.23 148.18,50.35 199.91,58.26z"/>
   <path class="fil0" d="M14661.66 9761.04c14,71.95 -32.85,23.21 41.29,60.55 1.67,0.84 59.09,16.73 68.07,19.56 105.3,33.22 353.14,90.27 404.47,-29.09 -111.53,4.02 -170.89,2.99 -274.48,-12.95 -63.99,-9.86 -201.18,-58.37 -239.35,-38.07z"/>
   <path class="fil0" d="M5931.33 10516.77c57.88,33.17 450.21,37.35 500.11,19.51 0.83,-3.28 0.95,-8.25 0.65,-10.1 -8.72,-54.32 -31.64,-35.85 -72.06,-94.75l-428.7 85.34z"/>
   <path class="fil0" d="M13382.12 10413.4c54.55,0.63 69.32,-20.17 100.86,-44.5 87.96,-67.9 225.95,-117.5 245.33,-202.54l-224.62 67.03c-84.45,25.16 -127.44,69.55 -121.57,180.01z"/>
   <path class="fil0" d="M13451.85 10179.91c65.94,-5.27 146.25,-31.21 207.42,-49.29 93.04,-27.51 115.46,-39.52 125.44,-139.81 -67.45,13.41 -135.99,31.48 -204.38,57.05 -104.36,39.05 -115.34,6.87 -128.48,132.05z"/>
   <path class="fil0" d="M5144.15 9808.6c88.77,104.48 470.32,25.41 502.48,-45.69 -74.11,-61.93 -161.28,32.42 -430.66,32.25 -18.31,-0.01 -21.35,-1.51 -40.26,1.78 -31.26,5.43 -14.25,0.98 -31.56,11.66z"/>
   <path class="fil0" d="M6889.37 10395.23c-10.53,-157.89 -74.62,-183.02 -329.3,-235.65 18.69,69.07 260.12,223.62 329.3,235.65z"/>
   <path class="fil0" d="M16559.06 10157.45c41.34,-11.49 145.83,-76.79 147.48,-109.68l-305.72 -28.05c5.57,63.3 79.21,98.98 158.24,137.73z"/>
   <path class="fil0" d="M3654.61 10018.19c4.89,33.09 -0.33,21.56 23.1,45.35 155.04,157.59 268.75,-71.88 269.06,-74.78l-292.16 29.43z"/>
   <path class="fil0" d="M16235.16 10066.54c20.26,57.57 174.03,171.11 286.83,163.87 -18.22,-70.18 -18.1,-41.22 -131.16,-127.14 -41.03,-31.19 -94.59,-98.93 -155.67,-36.73z"/>
   <path class="fil0" d="M3824.96 10191.71c61.07,24.15 120.23,-16.78 158.47,-43.41 19.82,-13.78 113.31,-80.64 124.31,-102.98 -63.69,-66.8 -91.61,-27.33 -156.52,26.18 -49.85,41.1 -114.47,61.3 -126.26,120.21z"/>
   <path class="fil0" d="M15152.6 9490.3c76,41.51 146.45,22.77 218.39,-24.11 44.21,-28.81 33.62,-22.16 41.3,-64.11 -66.05,-32.44 -233.33,19.73 -259.69,88.22z"/>
   <path class="fil0" d="M5149.21 9480.22c-10.58,-31.75 16.45,-39.28 -98.31,-86.16 -45.89,-18.74 -103.24,-20.25 -153.1,-17.8 7.28,108.18 153.6,118.4 251.41,103.96z"/>
   <path class="fil0" d="M11993.54 8637.15l177.57 -4.23c-3.45,-52.53 -44.52,-121.89 -98.46,-142.36l-62.66 6.44c51.54,16.37 23.92,-4.61 50.46,25.79l-48.13 22.46 -18.78 91.9z"/>
   <path class="fil0" d="M13862.32 8878.02c85.4,2.52 254.04,-25.45 243.47,-131.55l-196.79 63.71c-45.12,31.34 -32.77,29.07 -46.68,67.84z"/>
   <path class="fil0" d="M6414.27 8871.7c-24.78,-68.42 -151.58,-131.05 -238.75,-125.9 0.67,93.61 143.54,126.41 238.75,125.9z"/>
   <path class="fil0" d="M13989.82 8717.55c56.55,-5.54 76.93,-17.27 105.44,-39.32l2.27 -111.52c-63.37,20.02 -99.86,80.32 -107.71,150.84z"/>
   <path class="fil0" d="M6178.1 8666.16c32.74,23.31 49.32,46.22 111.57,36.94 -2.9,-19.77 -52.67,-136.57 -109.12,-139.88l-2.45 102.94z"/>
   <path class="fil0" d="M9925.21 10747.66c88.51,10.54 87.48,13.81 98.44,-69.71 -58.01,14.31 -77.74,27.74 -98.44,69.71z"/>
   <line class="fil1" x1="11331.14" y1="11613.44" x2="11252.18" y2= "11749.08" />
   <polygon class="fil0" points="1870.87,12694.23 19296.04,12838.72 19295.77,12775.02 1870.63,12637.79 "/>
  </g>
 </g>
</svg>
